<?xml version="1.0" encoding="UTF-8" standalone="no"?><!DOCTYPE svg PUBLIC "-//W3C//DTD SVG 1.1//EN" "http://www.w3.org/Graphics/SVG/1.1/DTD/svg11.dtd"><svg width="100%" height="100%" viewBox="0 0 888 900" version="1.1" xmlns="http://www.w3.org/2000/svg" xmlns:xlink="http://www.w3.org/1999/xlink" xml:space="preserve" xmlns:serif="http://www.serif.com/" style="fill-rule:evenodd;clip-rule:evenodd;stroke-linejoin:round;stroke-miterlimit:2;"><rect id="Mesa-de-trabajo1" serif:id="Mesa de trabajo1" x="0" y="0" width="885.621" height="898.692" style="fill:none;"/><g><g><g><g><clipPath id="_clip1"><rect x="127.279" y="28.35" width="529.838" height="487.033"/></clipPath><g clip-path="url(#_clip1)"><path d="M418.063,514.492c-14.051,-1.684 -20.288,-4.479 -20.738,-9.292c-0.371,-3.958 2.471,-5.512 11.987,-6.529c9.475,-1.017 15.155,-3.621 19.325,-8.858c9.58,-12.042 12.563,-34.034 10.026,-73.976c-1.709,-26.862 -3.117,-30.72 -14.663,-40.054c-6.238,-5.041 -12.629,-8.583 -19.096,-10.583c-8.316,-2.575 -12.454,-5.454 -14.808,-10.317c-1.588,-3.287 -3.392,-17.883 -4.067,-32.837c-0.517,-11.588 -0.45,-12.471 1.121,-14.542l1.671,-2.204l21.258,-0.442c16.338,-0.337 21.571,-0.716 22.609,-1.65c2.445,-2.183 1.72,-8.071 -1.925,-15.646c-3.642,-7.575 -4.021,-10.895 -1.963,-17.383c1.404,-4.425 1.221,-8.971 -0.537,-13.5c-0.88,-2.271 -0.892,-3.425 -0.059,-6.171c0.875,-2.871 0.825,-3.896 -0.325,-6.829c-1.287,-3.292 -1.275,-4.671 0.088,-12.108c0.325,-1.767 -0.204,-3.113 -2.167,-5.513c-2.221,-2.725 -2.517,-3.625 -2.058,-6.258c0.633,-3.625 -0.392,-3.921 -6.092,-1.758c-1.917,0.729 -5.137,1.321 -7.15,1.321c-3.058,-0 -4.067,-0.463 -6.092,-2.792l-2.425,-2.792l-6.12,1.55c-11.584,2.938 -17.3,0.583 -40.092,-16.492c-16.354,-12.254 -15.713,-12.091 -18.375,-4.541c-0.842,2.396 -2.404,5.033 -3.463,5.866c-2.595,2.03 -14.904,4.588 -34.712,7.213c-26.117,3.471 -38.792,4.337 -54.729,3.762c-17.3,-0.629 -24.175,0.167 -37.188,4.288c-12.767,4.046 -19.812,5.367 -37.571,7.037c-18.037,1.7 -28.296,3.855 -35.425,7.442c-9.975,5.021 -7.241,-0.571 2.967,-6.067c7.225,-3.891 14.079,-5.375 27.129,-5.87c15.034,-0.575 17.209,-0.925 17.209,-2.771c-0,-0.796 -3.13,-4.892 -6.959,-9.096c-7.633,-8.383 -9.429,-11.854 -9.437,-18.217l-0.009,-4.216l-2.358,4.425c-1.3,2.433 -3.529,8.183 -4.958,12.779c-1.43,4.596 -2.855,8.633 -3.167,8.975c-0.313,0.341 -2.433,-0.725 -4.721,-2.375c-5.412,-3.9 -11.566,-6.467 -17.241,-7.184c-2.509,-0.316 -4.734,-1.058 -4.946,-1.65c-0.5,-1.399 2.383,-13.47 5.016,-20.991c4.35,-12.438 11.975,-26.692 19.121,-35.738c7.296,-9.237 11.167,-10.025 22.279,-4.516c8.875,4.395 12.355,4.891 22.138,3.158c7.908,-1.404 20.046,-1.717 23.762,-0.604c1.121,0.337 2.155,1.242 2.292,2.012c0.321,1.775 -2.688,2.934 -12.312,4.73c-15.68,2.924 -26.784,9.654 -34.842,21.112c-7.738,11.008 -10.213,20.492 -7.083,27.15c0.733,1.55 4.42,6.242 8.195,10.417c6.838,7.566 8.03,10.108 5.705,12.175c-0.705,0.633 -6.742,1.358 -15.367,1.845c-14.904,0.85 -21.338,2.167 -28.133,5.759c-4.251,2.25 -3.821,2.208 5.737,-0.604c3.154,-0.925 11.638,-2.275 18.85,-2.996c20.767,-2.071 30.946,-3.8 41.233,-7.013c16.125,-5.041 16.4,-5.075 38.184,-4.946c22.02,0.134 32.237,-0.566 57.037,-3.933c18.588,-2.521 28.975,-4.554 32.234,-6.308c1.362,-0.734 2.812,-2.6 3.508,-4.5c0.654,-1.784 1.775,-4.371 2.487,-5.75c0.713,-1.379 0.98,-2.829 0.588,-3.225c-0.388,-0.396 -5.079,-4.15 -10.429,-8.334l-9.729,-7.608l-2.913,3.663c-3.175,3.987 -2.75,3.925 -13.487,2.045c-4.75,-0.825 -6.305,-0.02 -13.634,7.109c-8.029,7.808 -10.629,8.854 -20.175,8.121c-17.229,-1.317 -33.529,-13 -41.237,-29.559c-5.9,-12.679 -5.459,-14.337 9.4,-35.121c10.812,-15.125 12.141,-15.408 25.854,-5.412c2.571,1.871 10.312,8.287 17.208,14.254c6.896,5.971 18.3,15.625 25.338,21.458l12.8,10.596l6.587,-0.408c8.95,-0.558 14.221,0.904 18.288,5.062c2.696,2.759 3.208,3.855 3.208,6.83c0,2.216 -0.617,4.387 -1.654,5.804l-1.654,2.262l10.466,7.829c17.5,13.1 20.654,15.28 25.363,17.517c6.55,3.113 10.787,3.5 18.271,1.663l6.408,-1.575l0.496,-3.346c0.387,-2.596 1.983,-5.063 7.141,-11.05c6.509,-7.563 6.634,-7.788 6.138,-11.3c-0.271,-1.975 -0.863,-8.146 -1.313,-13.721c-0.908,-11.358 -1.825,-16.992 -4.233,-26c-2.617,-9.783 -10.267,-30.704 -15.821,-43.267l-5.104,-11.533l-14.5,-8.075c-7.975,-4.433 -17.692,-9.488 -21.592,-11.225c-3.9,-1.738 -8.062,-4.017 -9.25,-5.071c-1.191,-1.054 -7.479,-4.642 -13.979,-7.971c-6.496,-3.325 -13.108,-6.766 -14.687,-7.646c-1.575,-0.883 -7.792,-4.2 -13.804,-7.37c-10.446,-5.509 -11.046,-5.713 -13.221,-4.5c-3.75,2.083 -7.392,5.787 -7.392,7.508c0,2.712 -8.546,20.146 -14.9,30.396c-16.287,26.287 -31.983,32.566 -23.967,9.587c5.546,-15.912 16.921,-35.346 27.805,-47.516c5.762,-6.442 5.962,-6.575 9.904,-6.555c2.212,0.013 5.5,0.746 7.304,1.63c2.95,1.441 3.604,1.479 6.554,0.35c1.804,-0.684 5.421,-1.259 8.038,-1.275c4.983,-0.017 5.075,0.012 18.933,8.091l6.479,3.771l8.304,-0.542c4.634,-0.304 9.584,-0.17 11.196,0.309c3.417,1.016 9.304,6.2 10.967,9.662c0.933,1.942 1.95,2.575 4.9,3.05c10.133,1.638 18.254,6.825 21.075,13.479c0.979,2.309 2.637,6.163 3.687,8.559c1.046,2.4 1.9,5.212 1.9,6.254c0,2.533 1.434,3.717 11.063,9.158c13.358,7.538 28.583,17.563 33.012,21.729c5.596,5.267 7.559,9.85 7.559,17.655l-0,6.158l2.995,-0c2.463,-0 3.492,0.608 5.742,3.408c1.504,1.875 2.738,3.921 2.738,4.55c-0,0.634 1.287,3.675 2.87,6.767c7.6,14.871 5.492,23.937 -12.391,53.187c-6.984,11.413 -8.221,12.246 -13.884,9.284l-3.529,-1.842l-0.55,2.683c-0.446,2.184 -0.129,3.146 1.696,5.196c1.946,2.192 2.208,3.113 2,7.192c-0.425,8.517 -0.275,10.817 0.879,13.729c0.925,2.308 0.95,3.229 0.146,4.617c-1.312,2.262 -1.229,5.187 0.221,7.925c1.537,2.879 1.537,7.671 -0,12.337c-1.813,5.542 -1.558,10.075 0.792,13.904c4.5,7.33 5.8,15.955 2.975,19.713c-1.555,2.071 -1.7,2.083 -22.825,2.521c-17.196,0.358 -21.542,0.691 -22.73,1.758c-1.337,1.196 -1.42,2.463 -0.933,14.1c0.683,16.308 2.492,29.367 4.571,32.979c1.996,3.475 5.796,5.717 15.033,8.871c14.113,4.817 27.084,16.479 30.421,27.35c2.254,7.338 4.188,46.408 3.058,61.733c-2.329,31.563 -10.766,44.955 -29.404,46.667c-7.866,0.721 -11.458,1.867 -12.512,3.983c-0.596,1.205 -0.471,1.996 0.479,3.021c2.079,2.238 3.721,2.925 11.042,4.617c5.912,1.367 10.941,1.6 34.379,1.604c19.471,0.004 28.787,-0.325 32.029,-1.129c4.287,-1.058 4.579,-1.3 4.579,-3.733c0,-1.43 0.667,-3.392 1.475,-4.359c1.817,-2.154 1.425,-2.333 -6.717,-3.046c-3.262,-0.283 -7.587,-1.125 -9.62,-1.866c-3.355,-1.225 -3.925,-1.213 -6.296,0.108c-3.938,2.188 -11.346,4.779 -13.675,4.779c-1.138,0 -3.234,0.45 -4.654,1.004c-3.496,1.359 -8.3,0.275 -10.834,-2.454c-1.762,-1.891 -1.996,-2.783 -1.641,-6.191c0.558,-5.305 4.183,-9.242 13.254,-14.396l6.979,-3.967l-0.596,-7.492c-0.325,-4.12 -0.596,-21.566 -0.596,-38.779c0,-28.221 0.15,-31.762 1.529,-36.137c4.434,-14.046 15.284,-24.017 33.921,-31.179c10.696,-4.1 12.05,-6.08 11.546,-16.821c-0.387,-8.288 -1.504,-9.863 -6.037,-8.517c-1.709,0.508 -19.917,1.383 -40.471,1.942c-34.946,0.954 -37.604,0.921 -41.054,-0.517c-2.03,-0.85 -6.138,-1.592 -9.138,-1.65c-6.196,-0.121 -8.892,-1.879 -8.892,-5.8c0,-3.037 1.392,-4.446 4.409,-4.446c1.841,0 3.291,0.979 5.887,3.979l3.442,3.98l5.629,-0.834c14.125,-2.083 31.5,-2.891 54.392,-2.529c17.041,0.271 24.975,0.717 26.879,1.521c2.346,0.987 2.9,0.942 4.237,-0.358c1.88,-1.834 3.08,-7.317 3.767,-17.255c0.413,-5.916 0.279,-7.754 -0.629,-8.558c-0.813,-0.725 -9.129,-1.104 -28.292,-1.283l-27.137,-0.259l-2.084,-2.1c-2.458,-2.487 -4.175,-10.02 -3.395,-14.954c1.054,-6.721 1,-23.933 -0.08,-24.896c-2.066,-1.845 -2.187,-5.95 -0.275,-9.412c3.063,-5.542 3.242,-7.475 1.45,-15.371c-1.716,-7.542 -1.654,-17.608 0.121,-19.517c0.55,-0.595 0.654,1.438 0.317,6.138c-0.371,5.217 -0.158,8.308 0.833,11.979c1.959,7.246 1.725,11.617 -0.908,16.646l-2.246,4.296l1.954,3.846c1.525,3.004 1.825,4.55 1.388,7.083c-0.934,5.337 -1.196,24.567 -0.388,28.067c0.417,1.791 1.721,4.07 2.9,5.066c2.054,1.742 3.15,1.813 28.663,1.813c32.012,-0 30.212,-0.667 29.391,10.85c-0.733,10.183 -1.895,16.029 -3.683,18.475c-1.404,1.916 -1.442,2.416 -0.4,5.562c1.542,4.646 1.529,13.938 -0.029,17.459c-1.483,3.37 -3.896,5 -11.95,8.095c-19.796,7.596 -31.188,19.563 -33.533,35.221c-1.017,6.754 -1.25,48.329 -0.342,59.542l0.571,7.021l3.091,-7.504c5.192,-12.605 6.517,-13.95 24.642,-25.021c12.225,-7.467 14.179,-7.754 24.5,-3.663c7.829,3.104 12.121,3.317 16.879,0.842c4.271,-2.221 13.142,-12.108 23.984,-26.729c14.283,-19.254 17.841,-25.834 22.216,-41.088c1.463,-5.083 3.55,-11.137 4.642,-13.454c1.092,-2.312 2.883,-8.304 3.983,-13.304c1.096,-4.996 3.129,-11.633 4.517,-14.746c2.837,-6.387 2.817,-7.087 -0.575,-19.325c-2.783,-10.042 -3.408,-26.867 -1.55,-41.829c1.887,-15.242 1.692,-20.725 -1.171,-32.588c-6.5,-26.92 -11.3,-54.912 -14.267,-83.225c-1.316,-12.57 -2.216,-18.17 -3.016,-18.716c-0.629,-0.425 -2.809,-0.779 -4.85,-0.788c-2.038,-0.004 -4.525,-0.629 -5.521,-1.375c-2.3,-1.737 -3.004,-4.491 -9.633,-37.858c-2.988,-15.029 -5.925,-27.871 -6.53,-28.538c-0.854,-0.945 -2.641,-1.075 -8.133,-0.583c-3.871,0.35 -7.221,0.954 -7.446,1.354c-0.229,0.396 0.846,4.821 2.392,9.834c5.733,18.591 7.017,38.837 3.025,47.691c-3.6,7.996 -11.292,10.392 -23.458,7.304c-10.775,-2.733 -17.171,-7.566 -18.05,-13.645c-0.25,-1.73 -0.775,-4.338 -1.159,-5.792c-0.566,-2.158 -0.712,-1.546 -0.779,3.304c-0.05,3.275 -0.175,5.95 -0.292,5.95c-0.112,0 -2.783,-0.587 -5.941,-1.304c-9.309,-2.121 -13.9,-1.817 -28.888,1.933c-2.816,0.7 -2.321,-1.054 2.667,-9.516c2.475,-4.209 4.504,-8.442 4.504,-9.409c0,-2.296 -1.796,-3.854 -6.454,-5.596c-3.554,-1.333 -3.779,-1.604 -3.65,-4.408c0.233,-4.937 6.071,-19.296 9.358,-23.008c2.504,-2.829 3.475,-3.338 6.4,-3.338c5.45,0 11.809,4.329 14.5,9.875c1.779,3.663 2.825,10.5 2.129,13.921c-0.562,2.738 -0.333,3.396 2.055,5.963c3.475,3.741 3.7,3.775 4.462,0.72c0.796,-3.208 -1.854,-14.42 -4.612,-19.512c-2.275,-4.188 -8.088,-10.171 -11.996,-12.346c-2.513,-1.396 -2.617,-1.612 -1.229,-2.496c8.245,-5.275 23.666,-16.037 29.979,-20.916c4.3,-3.33 8.654,-6.055 9.671,-6.055c2.887,-0.008 4.737,2.725 7.17,10.575c2.371,7.671 4.088,10.288 7.15,10.913c10.213,2.067 21.088,5.575 29.117,9.383c13.371,6.346 22.542,9.45 34.121,11.554c11.962,2.167 17.096,3.93 28.304,9.73c6.425,3.325 9.696,5.654 13.204,9.429c8.225,8.85 9.384,14.312 5.309,25.066c-3.188,8.417 -2.684,13.946 2.133,23.288c10.225,19.833 11.912,25.704 11.162,38.883c-0.287,5.117 -1.15,9.746 -2.62,14.067c-1.205,3.542 -2.221,7.621 -2.263,9.058c-0.037,1.567 1.958,6.946 4.967,13.392c6.741,14.408 9.133,24.075 9.646,38.975c0.554,15.975 0.691,16.583 4.941,21.729c3.538,4.288 3.7,4.708 3.259,8.579c-0.971,8.463 -2.205,35.009 -2.855,61.359c-0.62,25.233 -0.812,27.712 -2.512,32.437c-4.163,11.554 -11.904,21.146 -33.654,41.683c-7.113,6.713 -9.704,9.742 -10.559,12.342c-2.07,6.292 -8.195,13.967 -9.787,12.263c-0.779,-0.842 2.079,-6.242 6.125,-11.567c3.929,-5.175 3.942,-5.208 3.942,-11.8c-0.005,-8.604 -3.109,-16.1 -9.425,-22.792c-9.267,-9.8 -23.78,-14.262 -31.975,-9.821c-3.309,1.792 -25.975,25.192 -25.209,26.017c0.171,0.183 2.809,-0.129 5.871,-0.692c11.617,-2.137 27.233,4.009 38.388,15.113c8.995,8.954 11.512,16.496 8.125,24.342c-2.046,4.741 -5.413,8.02 -16.059,15.625c-6.971,4.979 -9.516,7.358 -11.4,10.65c-2.325,4.062 -2.412,4.616 -2.262,13.658c0.208,12.104 -0.746,14.275 -8.129,18.483c-4.125,2.354 -5.88,2.892 -8.125,2.509c-5.109,-0.88 -7.2,-6.425 -4.763,-12.609c0.542,-1.362 1.238,-6.246 1.554,-10.854c0.309,-4.604 0.834,-9.462 1.163,-10.796c0.516,-2.112 0.358,-2.425 -1.229,-2.425c-4.425,0 -11.825,5.775 -25.192,19.663c-16.367,17.004 -19,18.646 -28.713,17.866c-3.487,-0.275 -7.445,-0.587 -8.8,-0.687c-1.354,-0.104 -5.775,0.296 -9.833,0.875c-8.446,1.212 -43.312,1.242 -53.271,0.042l0.004,-0Zm69.53,-2.996c-0.267,-0.754 -1.025,-1.15 -1.68,-0.884c-0.654,0.271 -1.366,0.492 -1.583,0.492c-0.212,0 -0.162,0.396 0.113,0.883c0.87,1.505 3.704,1.067 3.15,-0.491Zm9.916,-3.225c0.704,-1.084 1.279,-2.492 1.279,-3.129c0,-1.938 -3.887,-5.496 -6.008,-5.496c-2.737,-0 -3.954,1.904 -4.229,6.608c-0.188,3.208 0.1,4.258 1.433,5.267c1.45,1.087 1.979,1.087 3.963,-0.013c1.254,-0.7 2.862,-2.154 3.562,-3.237Zm7.392,-0.163c1.387,-1.137 6.017,-5.9 10.292,-10.587c13.57,-14.888 24.241,-23.017 29.35,-22.384c1.962,0.242 2.166,0.592 1.95,3.355c-0.134,1.7 -0.5,7.054 -0.821,11.9c-0.317,4.85 -1.042,9.679 -1.604,10.737c-1.688,3.179 -1.288,7.913 0.8,9.483c2.125,1.605 3.787,1.721 6.825,0.475l2.195,-0.895l-2.141,-2.309c-3.888,-4.179 -2.021,-9.996 3.208,-9.996c3.238,0 4.75,1.8 4.663,5.538l-0.071,2.833l1.146,-2.204c0.775,-1.487 1.154,-5.254 1.175,-11.621c0.016,-5.179 0.379,-10.412 0.808,-11.629c1.412,-3.996 6.875,-9.562 14.804,-15.087c12.304,-8.58 16.583,-14.988 15.225,-22.792c-1.733,-9.938 -17.362,-23.304 -32.067,-27.421c-6.245,-1.75 -11.766,-1.708 -17.95,0.125c-4.5,1.333 -5.57,2.163 -11.333,8.738c-7.171,8.191 -12.8,11.82 -18.329,11.82c-1.913,0 -6.538,-1.22 -10.288,-2.712c-10.162,-4.038 -11.679,-3.817 -23.67,3.467c-12.934,7.862 -16.488,10.658 -19.471,15.325c-2.671,4.179 -7.013,14.666 -7.929,19.15c-0.584,2.85 -0.546,2.9 1.75,2.287c3.479,-0.925 9.233,-5.137 18.97,-13.892c11.455,-10.295 22.388,-16.133 23.642,-12.616c1.004,2.821 -5.483,8.029 -23.467,18.837c-23.129,13.9 -21.145,12.121 -19.308,17.3c0.825,2.329 3.275,6.213 5.442,8.625l3.933,4.392l4.763,-2.871c2.616,-1.583 10.475,-6.871 17.462,-11.754c19.688,-13.758 31.146,-19.492 31.146,-15.592c-0,0.504 -5.254,7.171 -11.679,14.813c-16.342,19.437 -15.025,17.525 -11.788,17.121c6.05,-0.763 9.375,6.612 5.513,12.233l-1.809,2.637l3.075,-1.387c1.688,-0.758 4.205,-2.308 5.588,-3.442Zm-19.063,-1.908c0.184,-1.667 0.113,-3.025 -0.15,-3.025c-0.891,-0 -3.391,5.283 -2.9,6.129c0.955,1.667 2.725,-0.142 3.05,-3.104Zm71.521,-0.329c1.404,-2.913 0.979,-4.967 -1.296,-6.279c-3.483,-2.005 -6.387,2.887 -3.795,6.395c0.862,1.171 1.483,1.58 3.662,2.405c0.1,0.041 0.746,-1.096 1.429,-2.521Zm-119.541,-4.496c-3.45,-3.258 -4.346,-6.796 -2.625,-10.371c1.37,-2.854 2.762,-3.696 6.112,-3.696c5.233,0 8.542,6.163 6.342,11.825c-0.967,2.488 -1.004,3.159 -0.167,3.159c1.317,-0 9.571,-3.025 11.888,-4.359c1.67,-0.962 1.637,-1.062 -1.159,-3.704c-1.579,-1.492 -4.087,-5.417 -5.575,-8.721l-2.704,-6.004l-7.329,4.363c-4.033,2.4 -8.342,5.545 -9.583,7c-4.709,5.516 -1.888,13.187 4.854,13.187l2.783,0l-2.837,-2.679Zm7.637,-1.404c2.167,-2.963 2.158,-5.634 -0.037,-8.625c-1.405,-1.921 -2.292,-2.321 -4.684,-2.104c-4.046,0.366 -5.841,3.595 -4.271,7.675c1.013,2.625 4.134,5.262 6.325,5.337c0.534,0.021 1.73,-1.008 2.667,-2.283Zm54.433,-16.409c7.859,-9.333 14.175,-17.1 14.038,-17.262c-0.554,-0.65 -16.9,8.983 -25.383,14.958c-4.955,3.492 -12.259,8.429 -16.225,10.971c-3.967,2.542 -6.917,4.813 -6.555,5.05c0.98,0.65 9.975,2.333 14.175,2.658c2.03,0.159 4.13,0.35 4.671,0.438c0.542,0.083 7.417,-7.479 15.279,-16.813Zm-18.5,-24.833c8.067,-4.908 13.996,-9.75 13.109,-10.708c-0.234,-0.25 -2.304,0.316 -4.6,1.258c-4.65,1.896 -12.338,7.629 -18.563,13.834c-4.654,4.641 -5.137,4.85 10.054,-4.384Zm121.513,-22.1c1.108,-1.629 1.092,-1.675 -0.233,-0.554c-0.788,0.667 -1.434,1.625 -1.434,2.133c0,0.505 0.1,0.75 0.23,0.55c0.129,-0.204 0.774,-1.162 1.437,-2.129Zm14.137,-19.171c21.613,-20.979 28.534,-29.537 32.609,-40.341c1.45,-3.834 1.883,-7.013 2.108,-15.405c1.163,-42.895 2.092,-66.37 2.904,-73.333l0.946,-8.117l-3.354,-3.912c-4.196,-4.892 -5.112,-8.4 -5.121,-19.583c-0.004,-15.309 -2.991,-27.871 -10.217,-42.95c-5.37,-11.213 -5.5,-12.813 -1.991,-23.809c2.366,-7.408 2.521,-8.621 2.179,-17.291c-0.433,-11.171 -1.592,-15.079 -7.983,-26.95c-8.255,-15.321 -8.863,-19.355 -4.78,-31.805l2.625,-8.008l-1.45,-4.087c-3.129,-8.813 -11.233,-15.83 -25.916,-22.434c-8.892,-4.004 -9.046,-4.046 -21.496,-6.341c-11.021,-2.03 -21.092,-5.463 -33.696,-11.471c-10.216,-4.871 -11.637,-5.271 -10.417,-2.892c0.438,0.85 3.221,13.838 6.192,28.867c7.867,39.816 6.992,37.462 13.929,37.462c6.396,0 7.034,1.154 8.346,15.221c2.592,27.733 6.671,52.742 13.421,82.271c4.487,19.65 4.8,23.925 2.808,38.683c-2.3,17.059 -1.354,34.779 2.467,46.271c2.133,6.404 1.85,11.267 -1.021,17.696c-1.387,3.117 -3.15,8.833 -3.921,12.712c-0.766,3.88 -2.62,10.096 -4.116,13.813c-1.5,3.712 -3.717,10.242 -4.925,14.496c-3.034,10.7 -4.613,14.4 -9.779,22.925l-4.484,7.391l5.425,-4.808c6.825,-6.054 9.75,-7.546 14.809,-7.546c9.191,0 20.029,5.471 27.22,13.742c5.721,6.575 8.338,13.117 8.534,21.292c0.066,3.029 0.245,5.508 0.396,5.508c0.141,-0 3.633,-3.267 7.754,-7.267l-0.005,0Zm-158.816,-78.233c28.762,-0.888 33.146,-1.275 31.721,-2.813c-1.188,-1.266 -28.15,-2.587 -41.559,-2.025c-21.341,0.892 -42.679,2.955 -41.625,4.021c1.846,1.863 12.175,2.029 51.463,0.817Zm-57.425,-2.542c0.246,-0.429 -0.996,-2.183 -2.754,-3.9c-2.25,-2.183 -3.717,-2.971 -4.913,-2.637c-2.3,0.65 -2.233,4.183 0.117,5.954c1.971,1.483 6.817,1.862 7.55,0.587l-0,-0.004Zm36.704,-121.066c4.375,-6.234 14.188,-23.534 17.338,-30.588c2.95,-6.587 3.333,-8.167 3.304,-13.662c-0.017,-4.5 -0.55,-7.48 -1.921,-10.834c-1.038,-2.546 -2.167,-4.629 -2.508,-4.629c-0.334,0 -0.85,1.6 -1.142,3.558c-1.304,8.775 -11.388,29.355 -21.192,43.255c-6.533,9.258 -6.9,11.329 -2.458,13.816c4.546,2.546 6.275,2.363 8.579,-0.916Zm-21.258,0.766c1.45,-0.671 3.904,-2.641 5.446,-4.387l2.808,-3.171l-3.088,-8.396c-1.7,-4.612 -3.329,-8.387 -3.625,-8.379c-0.725,0.012 -10.929,12.112 -12.191,14.454c-2.042,3.779 -1.313,6.425 2.429,8.838c4.037,2.6 4.675,2.679 8.221,1.041Zm8.408,-2.366c0.963,-1.671 -0.442,-2.084 -1.867,-0.55c-1.279,1.375 -1.279,1.491 -0.029,1.491c0.746,0 1.6,-0.421 1.896,-0.941Zm-268.558,-12.475l1.716,-5.042l-2.641,1.733c-3.371,2.213 -5.904,2.204 -7.971,-0.021c-5.717,-6.15 3.729,-15.05 10.179,-9.591c2.138,1.808 2.238,1.816 3.329,0.221c0.621,-0.905 2.829,-5.838 4.913,-10.963c2.087,-5.121 5.712,-12.05 8.054,-15.396c4.321,-6.162 14.362,-15 16.275,-14.312c0.554,0.196 -1.046,1.825 -3.563,3.621c-2.512,1.795 -6.225,5.17 -8.254,7.5c-3.912,4.5 -8.354,11.495 -7.729,12.17c0.204,0.221 1.163,-0.962 2.121,-2.633c3.133,-5.454 12.704,-14.329 19.067,-17.687c5.762,-3.038 8.9,-4.017 23.029,-7.163c3.5,-0.783 6.154,-1.787 5.891,-2.237c-0.741,-1.296 -16.004,-0.95 -24.712,0.554c-9.604,1.658 -12.463,1.237 -21.758,-3.221c-11.692,-5.608 -14.95,-4.675 -22.792,6.487c-9.579,13.634 -16.363,28.317 -20.154,43.642c-1.129,4.558 -1.934,8.371 -1.784,8.479c0.146,0.104 2.646,0.692 5.555,1.313c5.287,1.121 13.758,4.858 16.841,7.429c2.008,1.675 2.238,1.421 4.388,-4.879l-0,-0.004Zm274.391,-0.467c6.613,-9.496 8.888,-13.413 13.275,-22.804c3.988,-8.529 8.317,-20.804 8.317,-23.588c0,-2.521 -9.396,-10.254 -10.65,-8.771c-0.342,0.405 -1.429,3.513 -2.421,6.909c-2.725,9.341 -9.129,21.612 -18.042,34.575l-1.762,2.562l3.121,8.517c1.712,4.683 3.321,8.521 3.571,8.533c0.25,0.009 2.316,-2.658 4.591,-5.933Zm-275.154,-5.146c2.875,-2.604 3.246,-5.171 0.933,-6.5c-3.962,-2.283 -9.066,0.108 -9.066,4.246c-0,4.921 3.971,6.021 8.133,2.254Zm124.063,-7.971c1.441,-0.791 5.2,-3.904 8.358,-6.916c3.154,-3.013 6.546,-5.934 7.525,-6.492c2.454,-1.392 6.746,-1.279 10.887,0.292c2.68,1.016 3.846,1.083 5.209,0.3c1.746,-1.005 5.062,-5.009 5.062,-6.117c0,-0.317 -5.162,-4.854 -11.471,-10.083c-6.312,-5.225 -17.929,-15.059 -25.816,-21.855c-14.942,-12.87 -25.096,-20.508 -28.467,-21.42c-3.208,-0.863 -5.467,0.9 -11.087,8.666c-12.392,17.092 -14.538,20.838 -14.538,25.375c0,10.479 12.246,27.304 24.604,33.804c3.371,1.775 8.159,3.796 10.634,4.496c6.304,1.779 15.808,1.754 19.1,-0.054l-0,0.004Zm152.562,-22.454c6.358,-13.129 8.138,-19.675 7.883,-28.967c-0.25,-8.987 -1.604,-12.291 -7.262,-17.754c-3.963,-3.821 -18.358,-13.35 -32.425,-21.466c-8.196,-4.725 -8.221,-4.696 -3.8,4.82c3.492,7.513 8.908,21.496 12.462,32.171c4.55,13.675 6.971,25.479 8.005,39.009c0.487,6.425 1.108,12.295 1.379,13.045c0.704,1.984 8.196,-9.375 13.758,-20.858Zm-89.204,17.942c0.596,-0.846 1.1,-2.954 1.112,-4.679c0.03,-3.23 -2.308,-6.467 -6.229,-8.63c-2.804,-1.55 -12.75,-2.866 -15.462,-2.054c-2.438,0.729 -2.371,0.804 7.733,8.817c5.608,4.45 10.546,8.092 10.975,8.092c0.429,-0 1.271,-0.696 1.871,-1.546Zm105.417,-38.196c-2.525,-2.421 -5.109,-3.383 -5.109,-1.896c0,0.867 6.834,5.371 7.375,4.858c0.225,-0.212 -0.796,-1.545 -2.266,-2.962Zm67.591,-22.808c8.588,-5.634 9.129,-28.192 1.279,-53.163c-3.741,-11.917 -3.695,-12 7.009,-12.208c4.183,-0.084 7.308,-0.434 6.95,-0.775c-0.734,-0.7 -9.463,-3.038 -14.742,-3.946c-4.9,-0.842 -7.083,-3.463 -9.208,-11.075c-3.284,-11.746 -4.813,-12.675 -11.775,-7.142c-5.692,4.521 -22.929,16.842 -27.963,19.988l-4.025,2.516l1.975,1.334c3.388,2.279 9.604,9.537 11.379,13.275c0.934,1.962 2.196,5.654 2.809,8.196l1.112,4.629l1.538,-2.996c0.837,-1.646 3.291,-5.888 5.45,-9.425c6.166,-10.113 17.833,-20.613 17.787,-16.004c-0.004,0.604 -4.854,6.854 -10.775,13.879c-5.921,7.033 -11.316,14.171 -11.987,15.867c-2.163,5.462 -3.192,10.933 -2.571,13.662c0.333,1.454 0.842,4.85 1.133,7.55c0.288,2.696 1.23,6.154 2.092,7.679c4.213,7.45 25.483,12.784 32.533,8.159Zm-63.821,-11.121c7.33,-1.525 11.971,-1.538 19.084,-0.05l5.425,1.129l0.546,-7.758c0.587,-8.338 -0.067,-10.95 -3.58,-14.367c-1.77,-1.725 -1.77,-1.725 -3.779,1.042c-3.733,5.125 -10.241,5.779 -13.475,1.35c-2.071,-2.83 -2.054,-4.688 0.067,-7.596c1.979,-2.704 5.687,-3.034 11.004,-0.971c1.804,0.7 3.354,1.275 3.446,1.283c0.1,0.004 0.404,-1.346 0.692,-2.996c0.837,-4.779 -1.5,-11.891 -5.13,-15.625c-3.941,-4.05 -5.987,-5.166 -9.5,-5.166c-3.787,-0 -6.708,2.666 -9.504,8.687c-2.975,6.4 -6.012,15.946 -5.516,17.334c0.212,0.595 1.745,1.358 3.408,1.691c3.621,0.734 6.942,4.029 6.942,6.892c-0,1.137 -2.042,5.571 -4.538,9.842c-3.025,5.183 -4.05,7.562 -3.075,7.154c0.808,-0.342 4.171,-1.184 7.479,-1.871l0.004,-0.004Zm-203.891,-13.438c2.004,-1.366 5.512,-4.696 7.796,-7.383c6.833,-8.054 18.958,-28.692 22.937,-39.042l1.358,-3.525l-2.212,2.204c-2.963,2.95 -9.971,14.396 -15.108,24.68c-4.705,9.412 -7.25,12.337 -10.746,12.337c-3.479,0 -3.809,-2.771 -1.213,-10.192c4.263,-12.179 11.859,-24.287 20.734,-33.033c5.67,-5.587 7.858,-6.287 9.52,-3.046c0.492,0.967 0.98,1.909 1.071,2.092c0.096,0.179 1.321,-0.713 2.729,-1.983c1.405,-1.275 2.892,-2.313 3.313,-2.313c2.162,0 0.262,-1.8 -3.225,-3.042c-6.371,-2.275 -8.763,-0.741 -18.5,11.855c-7.171,9.279 -11.588,16.545 -16.863,27.762c-6.145,13.075 -8.891,21.833 -7.433,23.721c1.425,1.846 1.596,1.812 5.842,-1.092Zm219.908,-7.341l2.358,-2.788l-2.766,-1.583c-3.496,-2.004 -7.934,-2.092 -9.875,-0.2c-2.121,2.058 -1.863,4.271 0.737,6.479c2.946,2.487 6.413,1.796 9.546,-1.908Zm-79.946,-4.242c-0.175,-0.55 -0.712,-0.55 -1.5,-0c-1.091,0.758 -1.091,0.946 0,1.708c1.259,0.871 2.042,-0.012 1.5,-1.708Zm-132.875,-2.142c1.288,-1.171 4.5,-6.421 7.138,-11.683c5.737,-11.429 8.421,-15.829 13.775,-22.558c3.979,-5.005 4.887,-8.409 2.475,-9.263c-1.413,-0.5 -11.871,10.483 -16.259,17.071c-6.095,9.154 -12.516,24.387 -11.495,27.262c0.645,1.805 1.666,1.613 4.366,-0.833l0,0.004Zm130.934,0.409c0.258,-0.455 -0.146,-2.484 -0.905,-4.513c-1.416,-3.812 -7.216,-8.762 -10.262,-8.762c-1.496,-0 -3.146,2.445 -3.146,4.666c0,4.054 12.579,11.621 14.308,8.609l0.005,-0Zm-15.688,-8.334c-0.342,-2.287 -0.046,-3.416 1.283,-4.846c2.225,-2.391 3.8,-2.333 8.084,0.3c4.504,2.771 4.446,1.175 -0.129,-3.537c-3.671,-3.788 -10.009,-6.942 -16.017,-7.975l-3.221,-0.55l2.042,6.317c1.125,3.475 1.837,7.008 1.587,7.862c-0.341,1.154 0.421,2.017 3.034,3.425c1.916,1.038 3.554,1.908 3.637,1.938c0.088,0.033 -0.05,-1.288 -0.3,-2.934Zm130.829,-17.691c0.059,-1.363 -8.646,8.245 -11.487,12.675c-1.888,2.937 -0.675,1.879 4.429,-3.896c3.862,-4.363 7.037,-8.317 7.058,-8.779Zm-138.904,14.554c0.538,-0.934 -2.517,-11.329 -3.837,-13.042c-1.434,-1.867 -9.384,-1.404 -11.3,0.658c-3.034,3.267 -2.142,4.617 5.941,9.005c8.338,4.525 8.504,4.583 9.196,3.379Zm-17.783,-11.367c1.279,-3.104 4.075,-4.542 8.829,-4.542c2.008,0 3.654,-0.362 3.654,-0.8c0,-1.225 -8.196,-8.875 -9.717,-9.066c-0.741,-0.096 -5.775,-0.196 -11.183,-0.221c-5.412,-0.029 -10.537,-0.413 -11.396,-0.858c-1.387,-0.717 -1.354,-0.513 0.288,1.879c1.512,2.204 1.679,3.016 0.925,4.533c-0.859,1.729 -0.342,2.171 7.908,6.671c4.858,2.65 9.021,4.842 9.246,4.867c0.229,0.02 0.879,-1.084 1.446,-2.463Zm-19.721,-10.362c0.162,-0.534 -1.283,-2.617 -3.208,-4.63c-3.942,-4.112 -7.538,-4.925 -8.434,-1.895c-0.708,2.395 -0.087,3.216 4.354,5.725c3.93,2.216 6.759,2.529 7.288,0.8Zm-13.692,-5.68c0,-0.508 0.892,-1.879 1.984,-3.054l1.987,-2.133l-2.6,-1.713c-4.496,-2.958 -9.129,-3.858 -14.133,-2.741c-2.446,0.546 -4.429,1.262 -4.409,1.591c0.042,0.571 15.284,8.775 16.555,8.909c0.337,0.029 0.616,-0.35 0.616,-0.859Z" style="fill:#fff;fill-rule:nonzero;stroke:#fff;stroke-width:0.92px;"/></g></g></g></g></g><g><g><g><clipPath id="_clip2"><rect x="46.579" y="540.333" width="805.579" height="154.483"/></clipPath><g clip-path="url(#_clip2)"><path d="M797.263,691.858c14.533,-3.241 22.837,-8.412 35,-21.779c7.741,-8.512 10.691,-13.479 14.058,-23.683c7.071,-21.471 5.383,-45.588 -4.679,-66.938c-5.955,-12.633 -14.709,-21.087 -31.109,-30.037c-4.196,-2.279 -8.35,-4.575 -9.233,-5.1c-4.433,-2.613 -30.088,-3.721 -44.142,-1.913c-10.104,1.309 -17.396,4.784 -32.421,15.455c-15.266,10.85 -27.233,37.266 -27.233,60.125c0,11.629 4.996,30.099 10.913,40.35c8.333,14.424 24.437,26.958 42.462,33.033c7.283,2.454 9.425,2.729 21.975,2.775c11.246,0.046 15.913,-0.392 24.409,-2.288Zm-36.542,-8.362c-6.292,-1.984 -12.517,-6.413 -18.817,-13.388c-5.229,-5.8 -8.392,-11.912 -12.354,-23.904c-2.842,-8.592 -2.867,-8.808 -2.879,-27.383c-0.013,-17.546 0.133,-19.221 2.346,-26.717c4.191,-14.233 12.42,-27.425 21.279,-34.121c13.121,-9.912 32.192,-10.391 46.516,-1.171c15.93,10.255 25.38,32.867 25.38,60.709c-0,34.483 -12.65,58.692 -34.471,65.979c-7.004,2.342 -19.546,2.333 -27,-0.004Zm-80.504,5.108c0.191,-0.637 -1.005,-2.854 -2.663,-4.925c-3.95,-4.933 -17.483,-23.379 -20.841,-28.396c-1.446,-2.17 -10.625,-14.941 -20.392,-28.387c-11.271,-15.517 -17.754,-25.254 -17.754,-26.671c-0,-1.579 3.058,-5.321 10.537,-12.892c5.796,-5.862 13.363,-13.616 16.817,-17.225c6.562,-6.858 17.504,-16.8 22.879,-20.791c1.725,-1.284 3.433,-2.792 3.792,-3.363c1.454,-2.283 -2.417,-3.496 -11.167,-3.496c-9.938,0 -10.892,0.688 -8.5,6.117c1.829,4.154 2.271,3.596 -21.542,27.183c-10.775,10.68 -22.816,22.825 -26.745,26.992c-9.838,10.421 -15.092,14.779 -16.892,14.017c-1.325,-0.559 -1.475,-3.825 -1.475,-32.292c0.008,-26.171 0.246,-32.158 1.354,-34.496c1.729,-3.646 1.7,-6.171 -0.079,-6.925c-1.846,-0.783 -26.717,-0.783 -28.563,0c-1.8,0.759 -1.816,3.734 -0.033,6.709c1.2,2.029 1.371,10.391 1.329,67.087c-0.05,63.946 -0.075,64.813 -1.912,67.654c-3.363,5.184 -1.821,5.759 15.483,5.759c17.058,-0 17.387,-0.15 14.271,-6.525c-1.713,-3.517 -1.85,-5.413 -1.817,-25.975c0.021,-15.567 0.359,-22.8 1.121,-24.238c0.6,-1.129 3.083,-4.562 5.521,-7.642c3.421,-4.308 5.004,-5.579 6.95,-5.579c1.387,0 2.521,0.367 2.521,0.813c-0,0.846 6.212,9.954 15.637,22.95c2.996,4.125 8.671,12.075 12.621,17.662c3.946,5.584 8.729,12.15 10.629,14.588c3.009,3.858 3.388,4.9 2.946,7.958c-0.529,3.671 0.008,5.417 1.887,6.088c0.609,0.216 8.446,0.17 17.417,-0.1c11.392,-0.346 16.421,-0.846 16.663,-1.659Zm-528.367,-1.783c5.129,-2.821 6.921,-4.475 9.854,-9.117c1.979,-3.116 4.767,-8.779 6.192,-12.571c2.354,-6.254 2.592,-7.941 2.571,-18.225c-0.017,-9.42 -0.346,-12.095 -1.917,-15.841c-2.758,-6.546 -10.975,-15.829 -17.321,-19.542c-6.262,-3.667 -6.237,-4.242 0.421,-9.121c9.263,-6.791 13.242,-17.737 11.425,-31.433c-1.733,-13.067 -6.933,-21.3 -16.267,-25.754c-3.908,-1.867 -6.604,-1.992 -50.77,-2.434c-29.121,-0.287 -47.117,-0.104 -47.892,0.492c-1.038,0.788 -0.888,1.754 0.871,5.729l2.121,4.788l0.02,62.566l0.025,62.571l-2.066,4.321c-1.138,2.375 -1.859,4.929 -1.6,5.667c0.387,1.116 8.879,1.346 49.262,1.346l48.804,-0l6.267,-3.442Zm-72.421,-5.242l-2.233,-1.996l0.246,-31.241c0.125,-17.175 0.458,-31.629 0.721,-32.109c0.266,-0.47 9.733,-0.858 21.037,-0.858c24.675,0 26.904,0.604 36.079,9.842c7.7,7.75 10.009,13.346 9.975,24.15c-0.046,14.637 -5.571,24.366 -17.208,30.296l-5.996,3.058l-20.192,0.421c-19.233,0.404 -20.3,0.333 -22.429,-1.563Zm0.35,-74.079c-1.046,-0.458 -2.096,-1.871 -2.337,-3.129c-0.238,-1.267 -0.379,-13.521 -0.309,-27.233c0.1,-20.721 0.346,-25.105 1.438,-25.913c0.804,-0.596 9.5,-0.846 22.4,-0.646c19.6,0.304 21.342,0.479 24.796,2.471c8.55,4.942 12.825,14.817 11.666,26.967c-0.75,7.862 -3.75,13.496 -10.079,18.962c-7.683,6.617 -13.425,8.271 -30.866,8.854c-8.142,0.275 -15.659,0.125 -16.709,-0.333Zm150.959,81.229c0.291,-0.841 -0.188,-3 -1.063,-4.791c-1.217,-2.475 -1.479,-4.538 -1.087,-8.571c0.525,-5.359 7.904,-26.5 10.366,-29.696c1.221,-1.579 3.904,-1.721 32.009,-1.721c28.083,0 30.783,0.142 32.045,1.721c0.763,0.954 3.7,7.271 6.525,14.046c2.834,6.775 5.459,12.758 5.846,13.304c1.792,2.529 2.892,9.237 1.979,12.112c-0.666,2.092 -0.65,3.255 0.063,4.034c0.65,0.716 6.312,1.096 16.4,1.096c18.042,-0 19.05,-0.438 14.737,-6.4c-1.479,-2.046 -2.695,-4.121 -2.695,-4.6c-0,-0.48 -1.65,-4.734 -3.671,-9.471c-2.021,-4.729 -5.492,-13.034 -7.721,-18.45c-2.225,-5.417 -6.229,-14.892 -8.892,-21.042c-2.658,-6.154 -4.833,-11.35 -4.833,-11.546c-0,-0.191 -2.217,-5.504 -4.929,-11.8c-2.721,-6.296 -4.938,-11.625 -4.938,-11.841c0,-0.413 -8.304,-20.33 -14.904,-35.738c-2.162,-5.058 -3.933,-9.846 -3.933,-10.642c-0,-0.791 -0.992,-2.525 -2.2,-3.858c-1.996,-2.187 -2.929,-2.417 -9.813,-2.417c-10.546,0 -11.516,0.559 -14.025,8.046c-3.983,11.917 -13.308,37.859 -19.237,53.538c-3.275,8.671 -7.517,20.204 -9.417,25.621c-3.862,11.008 -10.075,28.054 -15.037,41.275c-1.805,4.816 -4.596,10.491 -6.205,12.604c-4.362,5.729 -3.458,6.721 6.092,6.721c6.408,-0 8.108,-0.309 8.538,-1.534Zm35.479,-55.321c-17.284,-0.275 -20.979,-0.583 -21.396,-1.77c-0.488,-1.405 1.925,-7.992 11.367,-31.046c2.55,-6.229 6.22,-15.317 8.158,-20.192c5.833,-14.679 7.279,-14.775 12.717,-0.892c1.887,4.821 5.15,12.759 7.254,17.634c10.525,24.471 14.25,34.129 13.466,34.979c-1.237,1.367 -8.429,1.658 -31.566,1.287Zm156.496,55.309c0.291,-0.854 -0.321,-2.834 -1.38,-4.396c-1.841,-2.742 -1.908,-3.825 -1.908,-29.788c0,-19.645 0.288,-27.258 1.071,-28.125c0.679,-0.741 4.037,-1.179 9.012,-1.179c8.334,0 12.4,1.371 14.038,4.742c1.821,3.721 28.421,38.533 35.825,46.879c10.671,12.021 13.487,13.392 27.508,13.388c5.925,-0 11.284,-0.367 11.917,-0.809c1.217,-0.846 0.583,-4.091 -0.8,-4.091c-1.746,-0 -11.55,-12.534 -27.258,-34.871c-6.946,-9.863 -17.884,-27.117 -18.646,-29.396c-0.746,-2.238 0.237,-2.817 9.058,-5.346c4.1,-1.175 9.083,-3.379 11.071,-4.887c7.492,-5.709 13.487,-15.188 15.971,-25.234c3.358,-13.583 -4.904,-31.504 -17.721,-38.437l-5.971,-3.234l-45.767,-0.5c-25.175,-0.275 -46.283,-0.341 -46.895,-0.141c-1.509,0.483 -1.413,2.587 0.287,6.204c1.246,2.65 1.408,10.533 1.325,66.712c-0.096,61.942 -0.146,63.817 -1.912,67.534c-3.046,6.416 -2.817,6.521 14.875,6.521c13.495,-0 15.833,-0.221 16.3,-1.546Zm-1.738,-74.5c-1.463,-1.209 -1.567,-3.629 -1.342,-31.854l0.238,-30.546l18.325,-0.267c15.15,-0.217 19.096,0.017 22.812,1.367c16.304,5.95 23.488,18.471 20.309,35.404c-2.263,12.054 -6.705,18.7 -15.484,23.204l-6.491,3.333l-18.392,0.334c-14.254,0.254 -18.746,0.037 -19.975,-0.975Z" style="fill:#fff;fill-rule:nonzero;stroke:#fff;stroke-width:1.67px;"/></g></g></g></g><path d="M62.067,765.421l-0,-41.692l-15.663,0l0,-2.933l34.5,-0l0,2.933l-15.666,0l-0,41.692l-3.171,-0Z" style="fill-rule:nonzero;stroke:#fff;stroke-width:4.17px;"/><rect x="98.058" y="720.796" width="3.171" height="44.625" style="stroke:#fff;stroke-width:4.17px;"/><path d="M128.521,741.325l23.558,0l0,2.867l-23.558,-0l-0,-2.867Zm0.371,21.163l26.854,-0l-0,2.933l-30.025,-0l-0,-44.625l29.091,-0l0,2.933l-25.92,0l-0,38.759Z" style="fill-rule:nonzero;stroke:#fff;stroke-width:4.17px;"/><path d="M176.633,765.421l0,-44.625l2.671,-0l31.021,40.608l-1.429,0l-0,-40.608l3.171,-0l-0,44.625l-2.613,-0l-31.079,-40.609l1.429,0l0,40.609l-3.171,-0Z" style="fill-rule:nonzero;stroke:#fff;stroke-width:4.17px;"/><path d="M236.558,765.421l0,-44.625l17.217,-0c4.6,-0 8.642,0.958 12.121,2.871c3.483,1.912 6.187,4.545 8.112,7.904c1.93,3.358 2.892,7.204 2.892,11.537c0,4.338 -0.962,8.184 -2.892,11.538c-1.925,3.358 -4.629,5.996 -8.112,7.908c-3.479,1.913 -7.521,2.867 -12.121,2.867l-17.217,-0Zm3.171,-2.934l13.8,0c4.1,0 7.667,-0.829 10.692,-2.483c3.025,-1.658 5.367,-3.942 7.025,-6.854c1.654,-2.913 2.483,-6.258 2.483,-10.042c0,-3.783 -0.829,-7.129 -2.483,-10.041c-1.658,-2.909 -4,-5.192 -7.025,-6.85c-3.025,-1.659 -6.592,-2.488 -10.692,-2.488l-13.8,0l0,38.758Z" style="fill-rule:nonzero;stroke:#fff;stroke-width:4.17px;"/><path d="M289.333,765.421l20.017,-44.625l3.171,-0l20.017,44.625l-3.421,-0l-18.896,-42.584l1.367,0l-18.838,42.584l-3.417,-0Zm7.334,-12.559l1.058,-2.741l26.046,-0l1.058,2.741l-28.162,0Z" style="fill-rule:nonzero;stroke:#fff;stroke-width:4.17px;"/><path d="M375.054,765.421l0,-44.625l17.221,-0c4.6,-0 8.637,0.958 12.121,2.871c3.479,1.912 6.183,4.545 8.112,7.904c1.925,3.358 2.892,7.204 2.892,11.537c0,4.338 -0.967,8.184 -2.892,11.538c-1.929,3.358 -4.633,5.996 -8.112,7.908c-3.483,1.913 -7.521,2.867 -12.121,2.867l-17.221,-0Zm3.171,-2.934l13.8,0c4.104,0 7.667,-0.829 10.692,-2.483c3.025,-1.658 5.366,-3.942 7.025,-6.854c1.658,-2.913 2.487,-6.258 2.487,-10.042c0,-3.783 -0.829,-7.129 -2.487,-10.041c-1.659,-2.909 -4,-5.192 -7.025,-6.85c-3.025,-1.659 -6.588,-2.488 -10.692,-2.488l-13.8,0l-0,38.758Z" style="fill-rule:nonzero;stroke:#fff;stroke-width:4.17px;"/><path d="M438.521,741.325l23.562,0l0,2.867l-23.562,-0l-0,-2.867Zm0.375,21.163l26.854,-0l0,2.933l-30.025,-0l0,-44.625l29.092,-0l-0,2.933l-25.921,0l-0,38.759Z" style="fill-rule:nonzero;stroke:#fff;stroke-width:4.17px;"/><path d="M511.938,765.421l-0,-44.625l18.149,-0c4.684,-0 8.351,0.979 11.005,2.933c2.65,1.954 3.979,4.784 3.979,8.479c-0,2.421 -0.563,4.463 -1.679,6.121c-1.121,1.654 -2.663,2.9 -4.634,3.729c-1.966,0.829 -4.175,1.242 -6.62,1.242l1.12,-1.275c2.984,-0 5.534,0.446 7.646,1.337c2.113,0.896 3.721,2.192 4.817,3.892c1.1,1.7 1.65,3.825 1.65,6.375c-0,3.738 -1.329,6.638 -3.979,8.7c-2.654,2.063 -6.675,3.092 -12.063,3.092l-19.391,-0Zm3.17,-2.804l16.221,-0c4.188,-0 7.379,-0.734 9.575,-2.2c2.196,-1.467 3.296,-3.813 3.296,-7.046c-0,-3.188 -1.1,-5.513 -3.296,-6.979c-2.196,-1.467 -5.387,-2.2 -9.575,-2.2l-16.596,-0l0,-2.804l15.23,-0c3.77,-0 6.695,-0.742 8.766,-2.23c2.071,-1.487 3.109,-3.721 3.109,-6.695c-0,-2.934 -1.038,-5.142 -3.109,-6.63c-2.071,-1.487 -4.996,-2.233 -8.766,-2.233l-14.855,0l0,39.017Z" style="fill-rule:nonzero;stroke:#fff;stroke-width:4.17px;"/><path d="M570.804,741.325l23.558,0l0,2.867l-23.558,-0l0,-2.867Zm0.375,21.163l26.854,-0l0,2.933l-30.025,-0l0,-44.625l29.092,-0l0,2.933l-25.921,0l0,38.759Z" style="fill-rule:nonzero;stroke:#fff;stroke-width:4.17px;"/><path d="M618.917,765.421l-0,-44.625l18.154,-0c4.683,-0 8.35,0.979 11,2.933c2.654,1.954 3.979,4.784 3.979,8.479c-0,2.421 -0.558,4.463 -1.679,6.121c-1.117,1.654 -2.663,2.9 -4.629,3.729c-1.971,0.829 -4.175,1.242 -6.621,1.242l1.121,-1.275c2.983,-0 5.529,0.446 7.646,1.337c2.112,0.896 3.716,2.192 4.816,3.892c1.096,1.7 1.646,3.825 1.646,6.375c0,3.738 -1.325,6.638 -3.979,8.7c-2.65,2.063 -6.671,3.092 -12.058,3.092l-19.396,-0Zm3.17,-2.804l16.226,-0c4.187,-0 7.375,-0.734 9.575,-2.2c2.195,-1.467 3.291,-3.813 3.291,-7.046c0,-3.188 -1.096,-5.513 -3.292,-6.979c-2.199,-1.467 -5.387,-2.2 -9.575,-2.2l-16.595,-0l-0,-2.804l15.229,-0c3.771,-0 6.691,-0.742 8.762,-2.23c2.075,-1.487 3.109,-3.721 3.109,-6.695c-0,-2.934 -1.034,-5.142 -3.109,-6.63c-2.071,-1.487 -4.991,-2.233 -8.762,-2.233l-14.859,0l0,39.017Z" style="fill-rule:nonzero;stroke:#fff;stroke-width:4.17px;"/><rect x="674.988" y="720.796" width="3.171" height="44.625" style="stroke:#fff;stroke-width:4.17px;"/><path d="M702.65,765.421l0,-44.625l17.221,-0c4.6,-0 8.637,0.958 12.121,2.871c3.479,1.912 6.183,4.545 8.112,7.904c1.925,3.358 2.892,7.204 2.892,11.537c-0,4.338 -0.967,8.184 -2.892,11.538c-1.929,3.358 -4.633,5.996 -8.112,7.908c-3.484,1.913 -7.521,2.867 -12.121,2.867l-17.221,-0Zm3.171,-2.934l13.8,0c4.104,0 7.667,-0.829 10.692,-2.483c3.025,-1.658 5.366,-3.942 7.025,-6.854c1.658,-2.913 2.487,-6.258 2.487,-10.042c0,-3.783 -0.829,-7.129 -2.487,-10.041c-1.659,-2.909 -4,-5.192 -7.025,-6.85c-3.025,-1.659 -6.588,-2.488 -10.692,-2.488l-13.8,0l-0,38.758Z" style="fill-rule:nonzero;stroke:#fff;stroke-width:4.17px;"/><path d="M755.425,765.421l20.017,-44.625l3.17,-0l20.017,44.625l-3.417,-0l-18.9,-42.584l1.367,0l-18.833,42.584l-3.421,-0Zm7.337,-12.559l1.055,-2.741l26.045,-0l1.059,2.741l-28.159,0Z" style="fill-rule:nonzero;stroke:#fff;stroke-width:4.17px;"/><path d="M827.288,765.742c-3.234,-0 -6.292,-0.563 -9.171,-1.692c-2.879,-1.125 -5.109,-2.579 -6.684,-4.367l1.434,-2.42c1.491,1.57 3.529,2.899 6.12,3.983c2.592,1.083 5.338,1.625 8.238,1.625c2.9,-0 5.271,-0.392 7.117,-1.179c1.846,-0.788 3.212,-1.838 4.104,-3.155c0.892,-1.316 1.333,-2.783 1.333,-4.4c0,-1.912 -0.496,-3.441 -1.491,-4.591c-0.992,-1.146 -2.3,-2.059 -3.917,-2.738c-1.613,-0.683 -3.375,-1.254 -5.283,-1.725c-1.905,-0.466 -3.834,-0.966 -5.78,-1.496c-1.95,-0.533 -3.729,-1.22 -5.345,-2.07c-1.617,-0.85 -2.913,-2.009 -3.888,-3.475c-0.971,-1.467 -1.458,-3.371 -1.458,-5.705c-0,-2.125 0.537,-4.083 1.616,-5.866c1.075,-1.784 2.755,-3.229 5.034,-4.333c2.279,-1.109 5.2,-1.659 8.766,-1.659c2.405,0 4.775,0.359 7.117,1.083c2.342,0.721 4.342,1.7 6,2.934l-1.183,2.612c-1.821,-1.275 -3.779,-2.22 -5.875,-2.837c-2.092,-0.617 -4.113,-0.925 -6.059,-0.925c-2.779,-0 -5.079,0.404 -6.9,1.212c-1.825,0.809 -3.17,1.879 -4.041,3.221c-0.871,1.338 -1.304,2.833 -1.304,4.492c-0,1.912 0.487,3.442 1.458,4.591c0.975,1.146 2.271,2.059 3.887,2.742c1.617,0.679 3.396,1.254 5.346,1.721c1.946,0.467 3.875,0.967 5.779,1.496c1.909,0.533 3.667,1.225 5.284,2.075c1.616,0.85 2.925,1.996 3.916,3.442c0.996,1.445 1.492,3.312 1.492,5.608c0,2.083 -0.558,4.029 -1.679,5.833c-1.117,1.809 -2.825,3.25 -5.125,4.338c-2.3,1.083 -5.254,1.625 -8.858,1.625Z" style="fill-rule:nonzero;stroke:#fff;stroke-width:4.17px;"/><g><path d="M197.396,845.658l-0,-16.195l0.746,2.104l-18.275,-30.534l3.479,0l16.596,27.73l-1.738,-0l16.596,-27.73l3.296,0l-18.275,30.534l0.746,-2.104l-0,16.195l-3.171,0Z" style="fill-rule:nonzero;stroke:#fff;stroke-width:4.17px;"/><path d="M279.013,845.975c-3.23,0 -6.226,-0.563 -8.98,-1.688c-2.758,-1.129 -5.15,-2.712 -7.183,-4.75c-2.029,-2.041 -3.604,-4.433 -4.721,-7.174c-1.121,-2.738 -1.679,-5.746 -1.679,-9.017c-0,-3.275 0.558,-6.284 1.679,-9.021c1.117,-2.742 2.704,-5.133 4.754,-7.175c2.05,-2.038 4.446,-3.621 7.179,-4.75c2.734,-1.125 5.721,-1.688 8.95,-1.688c3.067,0 5.938,0.509 8.613,1.53c2.671,1.021 4.963,2.571 6.867,4.654l-1.988,2.104c-1.866,-1.871 -3.929,-3.221 -6.187,-4.05c-2.259,-0.825 -4.65,-1.242 -7.18,-1.242c-2.774,0 -5.354,0.488 -7.737,1.467c-2.383,0.979 -4.454,2.358 -6.217,4.146c-1.762,1.783 -3.129,3.866 -4.104,6.246c-0.971,2.379 -1.458,4.97 -1.458,7.779c-0,2.804 0.487,5.396 1.458,7.775c0.975,2.379 2.342,4.462 4.104,6.25c1.763,1.783 3.834,3.162 6.217,4.141c2.383,0.98 4.963,1.467 7.738,1.467c2.529,0 4.92,-0.416 7.179,-1.241c2.258,-0.83 4.321,-2.201 6.187,-4.113l1.988,2.104c-1.904,2.079 -4.196,3.642 -6.867,4.683c-2.675,1.042 -5.546,1.563 -8.612,1.563Z" style="fill-rule:nonzero;stroke:#fff;stroke-width:4.17px;"/><path d="M331.975,845.975c-3.229,0 -6.225,-0.563 -8.979,-1.688c-2.759,-1.129 -5.163,-2.72 -7.213,-4.783c-2.05,-2.062 -3.637,-4.462 -4.754,-7.204c-1.121,-2.742 -1.679,-5.725 -1.679,-8.954c0,-3.234 0.558,-6.217 1.679,-8.959c1.117,-2.741 2.704,-5.141 4.754,-7.204c2.05,-2.062 4.455,-3.654 7.213,-4.783c2.754,-1.125 5.75,-1.688 8.979,-1.688c3.233,0 6.229,0.563 8.983,1.688c2.759,1.129 5.15,2.712 7.18,4.75c2.033,2.042 3.616,4.433 4.758,7.175c1.137,2.737 1.708,5.746 1.708,9.021c0,3.271 -0.571,6.279 -1.708,9.016c-1.142,2.742 -2.725,5.134 -4.758,7.175c-2.03,2.038 -4.421,3.621 -7.18,4.75c-2.754,1.125 -5.75,1.688 -8.983,1.688Zm0,-2.996c2.779,0 5.346,-0.487 7.708,-1.466c2.363,-0.98 4.417,-2.359 6.154,-4.142c1.742,-1.788 3.101,-3.871 4.071,-6.25c0.975,-2.379 1.463,-4.971 1.463,-7.775c-0,-2.85 -0.488,-5.454 -1.463,-7.813c-0.971,-2.358 -2.329,-4.429 -4.071,-6.212c-1.737,-1.788 -3.791,-3.167 -6.154,-4.146c-2.362,-0.979 -4.929,-1.467 -7.708,-1.467c-2.775,0 -5.346,0.488 -7.708,1.467c-2.363,0.979 -4.421,2.358 -6.184,4.146c-1.762,1.783 -3.129,3.854 -4.104,6.212c-0.971,2.359 -1.458,4.963 -1.458,7.813c-0,2.804 0.487,5.396 1.458,7.775c0.975,2.379 2.342,4.462 4.104,6.25c1.763,1.783 3.821,3.162 6.184,4.142c2.362,0.979 4.933,1.466 7.708,1.466Z" style="fill-rule:nonzero;stroke:#fff;stroke-width:4.17px;"/><path d="M393.329,845.975c-3.229,0 -6.225,-0.563 -8.979,-1.688c-2.758,-1.129 -5.15,-2.712 -7.183,-4.75c-2.029,-2.041 -3.604,-4.433 -4.721,-7.174c-1.121,-2.738 -1.679,-5.746 -1.679,-9.017c-0,-3.275 0.558,-6.284 1.679,-9.021c1.117,-2.742 2.704,-5.133 4.754,-7.175c2.05,-2.038 4.446,-3.621 7.179,-4.75c2.734,-1.125 5.721,-1.688 8.95,-1.688c3.067,0 5.938,0.509 8.613,1.53c2.671,1.021 4.962,2.571 6.866,4.654l-1.987,2.104c-1.867,-1.871 -3.929,-3.221 -6.188,-4.05c-2.258,-0.825 -4.65,-1.242 -7.179,-1.242c-2.775,0 -5.354,0.488 -7.737,1.467c-2.384,0.979 -4.454,2.358 -6.217,4.146c-1.762,1.783 -3.129,3.866 -4.104,6.246c-0.971,2.379 -1.458,4.97 -1.458,7.779c-0,2.804 0.487,5.396 1.458,7.775c0.975,2.379 2.341,4.462 4.104,6.25c1.763,1.783 3.833,3.162 6.217,4.141c2.383,0.98 4.962,1.467 7.737,1.467c2.529,0 4.921,-0.416 7.179,-1.241c2.259,-0.83 4.321,-2.201 6.188,-4.113l1.987,2.104c-1.904,2.079 -4.195,3.642 -6.866,4.683c-2.675,1.042 -5.546,1.563 -8.613,1.563Z" style="fill-rule:nonzero;stroke:#fff;stroke-width:4.17px;"/><path d="M436.533,845.658l0,-41.696l-15.666,0l-0,-2.929l34.504,0l-0,2.929l-15.667,0l0,41.696l-3.171,0Z" style="fill-rule:nonzero;stroke:#fff;stroke-width:4.17px;"/><path d="M475.321,821.558l23.562,0l0,2.871l-23.562,0l-0,-2.871Zm0.375,21.167l26.854,0l0,2.933l-30.025,0l-0,-44.625l29.092,0l-0,2.93l-25.921,-0l-0,38.762Z" style="fill-rule:nonzero;stroke:#fff;stroke-width:4.17px;"/><path d="M523.438,845.658l-0,-44.625l3.17,0l0,41.692l25.05,0l0,2.933l-28.22,0Z" style="fill-rule:nonzero;stroke:#fff;stroke-width:4.17px;"/><path d="M571.925,821.558l23.558,0l0,2.871l-23.558,0l0,-2.871Zm0.371,21.167l26.854,0l-0,2.933l-30.025,0l-0,-44.625l29.092,0l-0,2.93l-25.921,-0l-0,38.762Z" style="fill-rule:nonzero;stroke:#fff;stroke-width:4.17px;"/><path d="M620.038,845.658l-0,-44.625l15.604,0c3.645,0 6.775,0.592 9.383,1.784c2.613,1.191 4.621,2.9 6.029,5.133c1.413,2.229 2.117,4.938 2.117,8.125c-0,3.104 -0.704,5.771 -2.117,8c-1.408,2.233 -3.416,3.954 -6.029,5.167c-2.608,1.208 -5.738,1.816 -9.383,1.816l-13.863,0l1.429,-1.529l0,16.129l-3.17,0Zm30.208,0l-11.313,-16.196l3.609,0l11.312,16.196l-3.608,0Zm-27.038,-15.937l-1.429,-1.534l13.863,0c4.679,0 8.233,-1.062 10.658,-3.187c2.425,-2.125 3.637,-5.1 3.637,-8.925c0,-3.867 -1.212,-6.85 -3.637,-8.954c-2.425,-2.104 -5.979,-3.159 -10.658,-3.159l-13.863,0l1.429,-1.591l0,27.35Z" style="fill-rule:nonzero;stroke:#fff;stroke-width:4.17px;"/><path d="M674.117,845.658l-0,-44.625l3.171,0l-0,44.625l-3.171,0Zm-1.925,-48.262l8.641,-7.521l4.475,0l-9.758,7.521l-3.358,-0Z" style="fill-rule:nonzero;stroke:#fff;stroke-width:4.17px;"/><path d="M694.508,845.658l20.017,-44.625l3.171,0l20.012,44.625l-3.416,0l-18.896,-42.587l1.366,-0l-18.837,42.587l-3.417,0Zm7.334,-12.562l1.058,-2.738l26.046,0l1.058,2.738l-28.162,-0Z" style="fill-rule:nonzero;stroke:#fff;stroke-width:4.17px;"/></g></svg>